<mxfile host="app.diagrams.net" modified="2024-03-02T08:02:24.776Z" agent="Mozilla/5.0 (Windows NT 10.0; Win64; x64) AppleWebKit/537.36 (KHTML, like Gecko) Chrome/122.0.0.0 Safari/537.36 Edg/122.0.0.0" etag="SwOS3IkwrsPUCXTR1bWw" version="24.0.0" type="github">
  <diagram name="第 1 页" id="PBiPYJ69vnELw5zb40Rl">
    <mxGraphModel dx="1064" dy="1621" grid="1" gridSize="10" guides="1" tooltips="1" connect="1" arrows="1" fold="1" page="1" pageScale="1" pageWidth="827" pageHeight="1169" math="0" shadow="0">
      <root>
        <mxCell id="0" />
        <mxCell id="1" parent="0" />
        <mxCell id="lZCqNmN2Ovb2mYEUzhpX-1" value="" style="rounded=0;whiteSpace=wrap;html=1;" vertex="1" parent="1">
          <mxGeometry x="100" y="220" width="540" height="240" as="geometry" />
        </mxCell>
        <mxCell id="lZCqNmN2Ovb2mYEUzhpX-2" value="" style="rounded=0;whiteSpace=wrap;html=1;" vertex="1" parent="1">
          <mxGeometry x="100" y="468" width="540" height="52" as="geometry" />
        </mxCell>
        <mxCell id="lZCqNmN2Ovb2mYEUzhpX-3" value="&lt;font style=&quot;font-size: 16px;&quot;&gt;&lt;b&gt;智算芯片&lt;/b&gt;&lt;/font&gt;" style="text;html=1;align=center;verticalAlign=middle;whiteSpace=wrap;rounded=0;" vertex="1" parent="1">
          <mxGeometry x="116.34" y="476.5" width="70" height="30" as="geometry" />
        </mxCell>
        <mxCell id="lZCqNmN2Ovb2mYEUzhpX-4" value="&lt;font style=&quot;font-size: 16px;&quot;&gt;CPU&lt;/font&gt;" style="rounded=1;whiteSpace=wrap;html=1;align=center;fillColor=#dae8fc;strokeColor=#6c8ebf;" vertex="1" parent="1">
          <mxGeometry x="190" y="473" width="100" height="37" as="geometry" />
        </mxCell>
        <mxCell id="lZCqNmN2Ovb2mYEUzhpX-5" value="&lt;font style=&quot;font-size: 16px;&quot;&gt;GPU&lt;/font&gt;" style="rounded=1;whiteSpace=wrap;html=1;align=center;fillColor=#d5e8d4;strokeColor=#82b366;" vertex="1" parent="1">
          <mxGeometry x="300" y="473" width="100" height="37" as="geometry" />
        </mxCell>
        <mxCell id="lZCqNmN2Ovb2mYEUzhpX-6" value="&lt;font style=&quot;font-size: 16px;&quot;&gt;TPU&lt;/font&gt;" style="rounded=1;whiteSpace=wrap;html=1;align=center;fillColor=#ffe6cc;strokeColor=#d79b00;" vertex="1" parent="1">
          <mxGeometry x="410" y="473" width="100" height="37" as="geometry" />
        </mxCell>
        <mxCell id="lZCqNmN2Ovb2mYEUzhpX-7" value="&lt;font style=&quot;font-size: 16px;&quot;&gt;NPU&lt;/font&gt;" style="rounded=1;whiteSpace=wrap;html=1;align=center;fillColor=#f8cecc;strokeColor=#b85450;" vertex="1" parent="1">
          <mxGeometry x="520" y="473" width="100" height="37" as="geometry" />
        </mxCell>
        <mxCell id="lZCqNmN2Ovb2mYEUzhpX-17" value="&lt;span style=&quot;font-size: 16px;&quot;&gt;&lt;b&gt;推理服务器&lt;/b&gt;&lt;/span&gt;" style="text;html=1;align=center;verticalAlign=middle;whiteSpace=wrap;rounded=0;" vertex="1" parent="1">
          <mxGeometry x="110" y="230" width="90" height="30" as="geometry" />
        </mxCell>
        <mxCell id="lZCqNmN2Ovb2mYEUzhpX-18" value="&lt;font style=&quot;font-size: 16px;&quot;&gt;推理前端&lt;/font&gt;" style="rounded=1;whiteSpace=wrap;html=1;strokeWidth=1;" vertex="1" parent="1">
          <mxGeometry x="210" y="230" width="130" height="40" as="geometry" />
        </mxCell>
        <mxCell id="lZCqNmN2Ovb2mYEUzhpX-43" style="edgeStyle=orthogonalEdgeStyle;rounded=0;orthogonalLoop=1;jettySize=auto;html=1;entryX=1;entryY=0;entryDx=0;entryDy=0;exitX=0.542;exitY=0.985;exitDx=0;exitDy=0;exitPerimeter=0;dashed=1;strokeWidth=2;" edge="1" parent="1" source="lZCqNmN2Ovb2mYEUzhpX-19" target="lZCqNmN2Ovb2mYEUzhpX-23">
          <mxGeometry relative="1" as="geometry">
            <Array as="points">
              <mxPoint x="440" y="280" />
              <mxPoint x="220" y="280" />
            </Array>
          </mxGeometry>
        </mxCell>
        <mxCell id="lZCqNmN2Ovb2mYEUzhpX-19" value="&lt;font style=&quot;font-size: 16px;&quot;&gt;管理前端&lt;/font&gt;" style="rounded=1;whiteSpace=wrap;html=1;dashed=1;strokeWidth=2;fillColor=#f5f5f5;fontColor=#333333;strokeColor=#666666;" vertex="1" parent="1">
          <mxGeometry x="370" y="230" width="130" height="40" as="geometry" />
        </mxCell>
        <mxCell id="lZCqNmN2Ovb2mYEUzhpX-21" style="edgeStyle=orthogonalEdgeStyle;rounded=0;orthogonalLoop=1;jettySize=auto;html=1;entryX=1;entryY=0.5;entryDx=0;entryDy=0;startArrow=classic;startFill=1;dashed=1;strokeWidth=2;" edge="1" parent="1" source="lZCqNmN2Ovb2mYEUzhpX-20" target="lZCqNmN2Ovb2mYEUzhpX-19">
          <mxGeometry relative="1" as="geometry" />
        </mxCell>
        <mxCell id="lZCqNmN2Ovb2mYEUzhpX-20" value="&lt;font style=&quot;font-size: 16px;&quot;&gt;模型数据库&lt;/font&gt;" style="shape=cylinder3;whiteSpace=wrap;html=1;boundedLbl=1;backgroundOutline=1;size=8;" vertex="1" parent="1">
          <mxGeometry x="542.31" y="225" width="90" height="50" as="geometry" />
        </mxCell>
        <mxCell id="lZCqNmN2Ovb2mYEUzhpX-22" value="" style="rounded=1;whiteSpace=wrap;html=1;strokeWidth=1;" vertex="1" parent="1">
          <mxGeometry x="116.34" y="309" width="220" height="140" as="geometry" />
        </mxCell>
        <mxCell id="lZCqNmN2Ovb2mYEUzhpX-23" value="&lt;span style=&quot;font-size: 16px;&quot;&gt;&lt;b&gt;模型管理器 1&lt;/b&gt;&lt;/span&gt;" style="text;html=1;align=center;verticalAlign=middle;whiteSpace=wrap;rounded=0;" vertex="1" parent="1">
          <mxGeometry x="120" y="309" width="100" height="30" as="geometry" />
        </mxCell>
        <mxCell id="lZCqNmN2Ovb2mYEUzhpX-24" value="" style="rounded=1;whiteSpace=wrap;html=1;strokeWidth=1;" vertex="1" parent="1">
          <mxGeometry x="350" y="309" width="220" height="140" as="geometry" />
        </mxCell>
        <mxCell id="lZCqNmN2Ovb2mYEUzhpX-44" value="" style="edgeStyle=orthogonalEdgeStyle;rounded=0;orthogonalLoop=1;jettySize=auto;html=1;" edge="1" parent="1" source="lZCqNmN2Ovb2mYEUzhpX-25" target="lZCqNmN2Ovb2mYEUzhpX-36">
          <mxGeometry relative="1" as="geometry" />
        </mxCell>
        <mxCell id="lZCqNmN2Ovb2mYEUzhpX-25" value="&lt;span style=&quot;font-size: 16px;&quot;&gt;&lt;b&gt;模型管理器 2&lt;/b&gt;&lt;/span&gt;" style="text;html=1;align=center;verticalAlign=middle;whiteSpace=wrap;rounded=0;" vertex="1" parent="1">
          <mxGeometry x="353.65999999999997" y="309" width="100" height="30" as="geometry" />
        </mxCell>
        <mxCell id="lZCqNmN2Ovb2mYEUzhpX-26" value="&lt;span style=&quot;font-size: 16px;&quot;&gt;&lt;b&gt;...&lt;/b&gt;&lt;/span&gt;" style="text;html=1;align=center;verticalAlign=middle;whiteSpace=wrap;rounded=0;" vertex="1" parent="1">
          <mxGeometry x="580" y="359" width="27.69" height="30" as="geometry" />
        </mxCell>
        <mxCell id="lZCqNmN2Ovb2mYEUzhpX-27" value="&lt;span style=&quot;font-size: 16px;&quot;&gt;调度器&lt;/span&gt;" style="rounded=1;whiteSpace=wrap;html=1;strokeWidth=1;" vertex="1" parent="1">
          <mxGeometry x="130" y="349" width="190" height="40" as="geometry" />
        </mxCell>
        <mxCell id="lZCqNmN2Ovb2mYEUzhpX-29" value="&lt;span style=&quot;font-size: 16px;&quot;&gt;节点 1&lt;/span&gt;" style="rounded=1;whiteSpace=wrap;html=1;strokeWidth=1;fillColor=#dae8fc;strokeColor=#6c8ebf;" vertex="1" parent="1">
          <mxGeometry x="125" y="394" width="90" height="40" as="geometry" />
        </mxCell>
        <mxCell id="lZCqNmN2Ovb2mYEUzhpX-30" value="&lt;span style=&quot;font-size: 16px;&quot;&gt;节点 2&lt;/span&gt;" style="rounded=1;whiteSpace=wrap;html=1;strokeWidth=1;fillColor=#d5e8d4;strokeColor=#82b366;" vertex="1" parent="1">
          <mxGeometry x="220" y="394" width="90" height="40" as="geometry" />
        </mxCell>
        <mxCell id="lZCqNmN2Ovb2mYEUzhpX-31" value="&lt;span style=&quot;font-size: 16px;&quot;&gt;&lt;b&gt;...&lt;/b&gt;&lt;/span&gt;" style="text;html=1;align=center;verticalAlign=middle;whiteSpace=wrap;rounded=0;" vertex="1" parent="1">
          <mxGeometry x="308.65" y="395" width="27.69" height="30" as="geometry" />
        </mxCell>
        <mxCell id="lZCqNmN2Ovb2mYEUzhpX-36" value="&lt;span style=&quot;font-size: 16px;&quot;&gt;调度器&lt;/span&gt;" style="rounded=1;whiteSpace=wrap;html=1;strokeWidth=1;" vertex="1" parent="1">
          <mxGeometry x="363.65999999999997" y="349" width="190" height="40" as="geometry" />
        </mxCell>
        <mxCell id="lZCqNmN2Ovb2mYEUzhpX-37" value="&lt;span style=&quot;font-size: 16px;&quot;&gt;节点 3&lt;/span&gt;" style="rounded=1;whiteSpace=wrap;html=1;strokeWidth=1;fillColor=#ffe6cc;strokeColor=#d79b00;" vertex="1" parent="1">
          <mxGeometry x="358.65999999999997" y="394" width="90" height="40" as="geometry" />
        </mxCell>
        <mxCell id="lZCqNmN2Ovb2mYEUzhpX-38" value="&lt;span style=&quot;font-size: 16px;&quot;&gt;节点 4&lt;/span&gt;" style="rounded=1;whiteSpace=wrap;html=1;strokeWidth=1;fillColor=#f8cecc;strokeColor=#b85450;" vertex="1" parent="1">
          <mxGeometry x="453.65999999999997" y="394" width="90" height="40" as="geometry" />
        </mxCell>
        <mxCell id="lZCqNmN2Ovb2mYEUzhpX-39" value="&lt;span style=&quot;font-size: 16px;&quot;&gt;&lt;b&gt;...&lt;/b&gt;&lt;/span&gt;" style="text;html=1;align=center;verticalAlign=middle;whiteSpace=wrap;rounded=0;" vertex="1" parent="1">
          <mxGeometry x="542.31" y="395" width="27.69" height="30" as="geometry" />
        </mxCell>
        <mxCell id="lZCqNmN2Ovb2mYEUzhpX-40" style="edgeStyle=orthogonalEdgeStyle;rounded=0;orthogonalLoop=1;jettySize=auto;html=1;exitX=0.5;exitY=1;exitDx=0;exitDy=0;entryX=0.905;entryY=0.05;entryDx=0;entryDy=0;entryPerimeter=0;strokeWidth=2;" edge="1" parent="1" source="lZCqNmN2Ovb2mYEUzhpX-18" target="lZCqNmN2Ovb2mYEUzhpX-27">
          <mxGeometry relative="1" as="geometry">
            <Array as="points">
              <mxPoint x="275" y="290" />
              <mxPoint x="302" y="290" />
            </Array>
          </mxGeometry>
        </mxCell>
        <mxCell id="lZCqNmN2Ovb2mYEUzhpX-42" style="edgeStyle=orthogonalEdgeStyle;rounded=0;orthogonalLoop=1;jettySize=auto;html=1;entryX=0.75;entryY=0;entryDx=0;entryDy=0;exitX=0.5;exitY=1;exitDx=0;exitDy=0;strokeWidth=2;" edge="1" parent="1" source="lZCqNmN2Ovb2mYEUzhpX-18" target="lZCqNmN2Ovb2mYEUzhpX-36">
          <mxGeometry relative="1" as="geometry">
            <Array as="points">
              <mxPoint x="275" y="290" />
              <mxPoint x="506" y="290" />
            </Array>
          </mxGeometry>
        </mxCell>
        <mxCell id="lZCqNmN2Ovb2mYEUzhpX-45" style="edgeStyle=orthogonalEdgeStyle;rounded=0;orthogonalLoop=1;jettySize=auto;html=1;entryX=0.862;entryY=0.05;entryDx=0;entryDy=0;entryPerimeter=0;strokeWidth=2;dashed=1;" edge="1" parent="1" target="lZCqNmN2Ovb2mYEUzhpX-25">
          <mxGeometry relative="1" as="geometry">
            <mxPoint x="440" y="270" as="sourcePoint" />
            <Array as="points">
              <mxPoint x="440" y="270" />
              <mxPoint x="440" y="290" />
            </Array>
          </mxGeometry>
        </mxCell>
      </root>
    </mxGraphModel>
  </diagram>
</mxfile>
